PathFileType	4	(X/Y/Z)	c:/Users/goper/Files/vsCode/490R/osim_files/A03/A03_Slow_04.trc
DataRate	CameraRate	NumFrames	NumMarkers	Units                	OrigDataRate	OrigDataStartFrame	OrigNumFrames
250.00	250.00	7	36	mm	250.0	1330	2658
                Frame#	Time	LPSIS			LASIS			LTH1			LTH2			LTH3			LTH4			LLFE			LMFE			LSH1			LSH2			LSH3			LSH4			LLMAL			LMMAL			LCAL			LMTP5			LTOE			LMTP1			RPSIS			RASIS			RTH1			RTH2			RTH3			RTH4			RLFE			RMFE			RSH1			RSH2			RSH3			RSH4			RLMAL			RMMAL			RCAL			RMTP1			RTOE			RMTP5		
		X1	Y1	Z1	X2	Y2	Z2	X3	Y3	Z3	X4	Y4	Z4	X5	Y5	Z5	X6	Y6	Z6	X7	Y7	Z7	X8	Y8	Z8	X9	Y9	Z9	X10	Y10	Z10	X11	Y11	Z11	X12	Y12	Z12	X13	Y13	Z13	X14	Y14	Z14	X15	Y15	Z15	X16	Y16	Z16	X17	Y17	Z17	X18	Y18	Z18	X19	Y19	Z19	X20	Y20	Z20	X21	Y21	Z21	X22	Y22	Z22	X23	Y23	Z23	X24	Y24	Z24	X25	Y25	Z25	X26	Y26	Z26	X27	Y27	Z27	X28	Y28	Z28	X29	Y29	Z29	X30	Y30	Z30	X31	Y31	Z31	X32	Y32	Z32	X33	Y33	Z33	X34	Y34	Z34	X35	Y35	Z35	X36	Y36	Z36

1330	5.31600	161.95969	1066.28723	294.04691	-77.33340	987.05914	418.76321	-164.54588	653.28461	461.65671	-190.52805	619.98511	455.59943	-210.72305	685.77094	437.04684	-230.32039	646.13458	432.82526	-188.00891	569.73840	443.47256	-215.86183	573.67871	289.54376	-181.61949	475.67422	442.47095	-203.08580	431.37894	440.55386	-242.11803	493.89999	438.69412	-251.69720	447.33029	434.66083	-330.11633	129.62537	410.39005	-341.76282	139.79823	312.78592	-273.60916	89.89594	355.00403	-490.37628	134.31250	427.38647	-507.41711	173.68121	358.96771	-488.83609	142.95248	313.40115	160.20979	1077.53430	211.10620	-77.17738	972.61707	118.94894	54.66222	609.65125	97.43766	55.43772	565.38300	107.46706	-6.78913	602.48456	108.08010	2.10209	559.85693	116.20589	37.77556	530.81921	125.41780	5.84441	537.60431	245.99725	102.31721	473.92880	123.83072	112.62262	433.96185	113.49455	43.01108	453.10889	122.68483	62.70736	410.74417	114.16083	176.48909	128.63065	166.02730	0.00000	0.00000	0.00000	236.57358	88.52705	224.53154	19.19392	47.89774	249.95479	-5.22534	68.10444	202.07230	32.78811	43.54219	133.23674
1331	5.32000	158.13219	1065.59253	294.48718	-81.16092	985.98822	418.86310	-168.13788	652.17450	461.47549	-194.07092	618.85364	455.31946	-214.29657	684.67584	436.72223	-233.79079	644.98065	432.46933	-191.58472	568.92523	443.11816	-218.91193	572.65948	289.08258	-186.00255	474.82242	442.59949	-208.16141	430.71899	440.58759	-246.54263	493.58322	438.41928	-256.60883	447.08224	434.50797	-338.45892	130.28206	410.95465	-349.63400	140.28926	313.31537	-282.50296	89.69315	355.85101	-498.69867	136.83998	427.33450	-515.06683	176.39368	358.33029	-496.48584	145.02884	313.56284	156.42101	1076.89734	211.58586	-80.64661	971.90314	119.43695	52.16450	609.21942	97.41359	53.05880	564.97388	107.44087	-9.20007	601.88708	107.96395	-0.22451	559.26111	116.09605	35.55746	530.32532	125.34448	3.55135	536.88727	245.89287	100.40231	473.75208	123.81134	111.03478	433.93362	113.44569	41.21968	452.64249	122.59592	61.08213	410.39014	113.90232	176.34477	128.71825	165.91872	0.00000	0.00000	0.00000	236.53705	88.65116	224.46011	19.17407	47.88493	249.94316	-5.24488	68.00928	201.99580	32.76648	43.43945	133.20258
1332	5.32400	154.27892	1064.90930	294.94366	-84.60410	984.81165	419.13617	-171.55385	650.92175	461.44757	-197.72026	617.67792	454.99423	-217.99039	683.57019	436.33582	-237.36903	643.78857	432.03992	-195.25830	568.04572	442.76733	-221.92574	571.56903	288.58557	-191.72061	473.40698	441.73297	-213.21422	430.05280	440.67145	-250.92863	493.26489	438.17191	-261.51535	446.80524	434.39972	-346.52264	130.86716	411.59000	-357.18808	140.57326	313.59705	-290.64816	89.53578	356.97223	-506.75970	139.12645	427.37354	-522.38934	178.74139	357.93713	-504.55353	146.62210	312.92725	152.60707	1076.27551	212.07790	-83.53948	971.48401	120.38810	49.65763	608.83240	97.37469	50.68058	564.57184	107.37567	-11.41694	601.36963	107.71868	-2.56743	558.65057	116.01056	33.36634	529.88654	125.26321	1.18644	536.24957	245.74704	98.49306	473.58676	123.79149	109.32861	433.84528	113.39593	39.71756	452.31720	122.36716	59.51312	410.03323	114.00379	176.18961	128.81369	165.81595	0.00000	0.00000	0.00000	236.45030	88.73453	224.39558	19.09845	47.84074	249.88184	-5.25303	67.90981	201.94417	32.77761	43.32236	133.17258
1333	5.32800	150.34586	1064.17749	295.37186	-89.03529	983.96460	419.17853	-175.62047	649.79980	460.98978	-201.40477	616.50134	454.63019	-221.74179	682.42389	435.96060	-241.05151	642.62152	431.59436	-198.96164	567.27686	442.40637	-224.96767	570.44128	288.02158	-196.25810	472.55234	441.73813	-218.17770	429.40289	440.73993	-255.23056	492.95908	437.94537	-266.28400	446.53357	434.28186	-354.26401	131.39932	412.30273	-364.42346	140.94098	314.49838	-298.04169	89.90279	357.89484	-514.39362	141.28609	427.40848	-529.42889	180.68022	357.87601	-511.64035	148.25420	313.00815	148.77225	1075.67419	212.59866	-88.97788	970.51172	116.71945	47.18292	608.44025	97.31735	48.31700	564.16833	107.34118	-14.16994	600.63049	107.73503	-4.85998	558.13232	115.84454	31.17541	529.39661	125.13214	-1.27758	535.52283	245.57910	96.58292	473.44415	123.76431	107.65607	433.74799	113.33654	37.95621	451.88702	122.24176	57.87648	409.71762	113.67030	176.00850	128.88942	165.67874	0.00000	0.00000	0.00000	236.32092	88.83936	224.34998	19.07810	47.80800	249.83856	-5.28559	67.81721	201.91084	32.73381	43.21144	133.12352
1334	5.33200	146.41048	1063.47937	295.82748	-92.94085	982.89026	419.33008	-179.10927	648.65588	460.91238	-204.86722	615.39160	454.22852	-225.84911	681.42810	435.11520	-244.78481	641.39453	431.11975	-202.68895	566.49200	441.99060	-228.00629	569.24719	287.51151	-200.76567	471.77362	441.73444	-223.04108	428.82941	440.84241	-259.53729	492.63678	437.69147	-271.00809	446.28796	434.13913	-361.56686	131.86624	413.04764	-371.20651	141.12518	315.21735	-305.05667	90.10374	358.77676	-521.69031	143.20772	427.48520	-536.14209	182.42551	357.71857	-518.43530	149.68800	313.03885	144.88663	1075.09106	213.07518	-92.48276	970.31525	116.23853	44.70717	608.08167	97.28017	46.03539	563.80377	107.23096	-16.35995	600.13855	107.49664	-7.16661	557.53375	115.69118	29.04696	528.94360	124.96554	-3.73348	534.86639	245.39723	94.70670	473.29596	123.74142	105.99827	433.66479	113.27530	36.18337	451.45081	122.09530	56.37306	409.36215	113.51460	175.83424	129.00690	165.50366	0.00000	0.00000	0.00000	236.21764	88.96861	224.22763	19.09328	47.81770	249.77124	-5.30568	67.73492	201.83540	32.75181	43.10416	133.06851
1335	5.33600	142.49457	1062.76489	296.25330	-96.45441	981.69348	419.59143	-183.18150	647.64789	460.38831	-208.84444	614.21826	453.85168	-229.76981	680.20746	434.66998	-247.80151	639.54242	430.69308	-206.37668	565.75598	441.55280	-231.05400	568.00537	286.95963	-205.16420	471.03650	441.71188	-227.73863	428.23407	440.91992	-263.76379	492.25629	437.40262	-275.86078	445.78860	434.03018	-368.43185	132.53114	414.03040	-377.68689	141.13934	315.94366	-311.48056	90.27850	359.98651	-528.56934	144.94646	427.57239	-542.43121	184.04349	357.52771	-524.68555	150.77852	313.25449	140.98161	1074.48230	213.59302	-96.13852	969.53247	116.47860	42.26673	607.70935	97.20677	43.78939	563.48083	107.13224	-18.78329	599.52417	107.32210	-9.41182	556.96759	115.52061	26.88423	528.49261	124.80867	-6.19781	534.13501	245.14767	92.82264	473.12061	123.70540	104.35076	433.58963	113.17479	34.49770	451.02310	121.89252	54.85106	409.06952	113.35392	175.66389	129.09917	165.32819	0.00000	0.00000	0.00000	236.14563	89.13360	224.10645	19.20223	47.82320	249.70897	-5.37135	67.59633	201.67938	32.75537	42.97256	133.00351
1336	5.34000	138.57860	1062.10645	296.67041	-101.15917	980.61871	419.95779	-186.87053	646.45508	460.22134	-212.62161	613.04266	453.38470	-233.29657	678.97894	434.56821	-251.56082	638.28192	430.11075	-209.99017	565.00885	441.11310	-233.40280	566.51984	286.70322	-209.42946	470.31451	441.67453	-232.31937	427.67178	440.98911	-267.93405	491.87347	437.10477	-280.01291	445.63928	433.87155	-374.77130	132.89015	415.01138	-383.82370	141.01131	316.74536	-319.30386	88.86288	362.18311	-535.07501	146.44212	427.73331	-548.98541	184.79646	358.26050	-530.70050	151.64622	313.39673	137.03760	1073.93079	214.06723	-99.80109	968.74268	116.68157	39.85432	607.36334	97.11490	41.55853	563.12909	107.01556	-21.45008	598.82672	107.25460	-11.67299	556.39642	115.32784	24.75043	528.03748	124.65470	-8.57042	533.47882	244.87805	90.87246	472.95834	123.70181	102.76359	433.55310	113.11469	32.51371	450.52652	121.85394	53.36468	408.69128	113.34330	175.55795	129.21815	165.13113	0.00000	0.00000	0.00000	236.10423	89.31699	223.98074	19.18363	47.82817	249.65297	-5.45269	67.42297	201.50877	32.75041	42.86283	132.96533
